<svg xmlns="http://www.w3.org/2000/svg" xml:space="preserve" width="760" height="190" version="1.1" style="shape-rendering:geometricPrecision; text-rendering:geometricPrecision; image-rendering:optimizeQuality; fill-rule:evenodd; clip-rule:evenodd" xmlns:xlink="http://www.w3.org/1999/xlink"><style xmlns="">@keyframes detected-object-or-embed {
from { opacity: 0.99; }
to { opacity: 1; }
}
object, embed { animation-duration: 0.001s; animation-name: detected-object-or-embed; }</style><rect id="backgroundrect" width="100%" height="100%" x="0" y="0" fill="none" stroke="none"/>
 <defs>
  <style type="text/css">
   <![CDATA[
    .str0 {stroke:#8F6C3A;stroke-width:0.52;stroke-miterlimit:22.9256}
    .fil0 {fill:#C5A974}
   ]]>
  </style>
 </defs>
 
<g class="currentLayer" style=""><title>Layer 1</title><g id="Layer_x0020_1">
  <metadata id="CorelCorpID_0Corel-Layer"/>
  <path class="fil0 str0" d="M13.62 53.46l0 122.6 0 0.01 22.59 0 0 0c0,-23.48 0,-42.71 0,-58.45l0 0 15.5 33.78 15.53 -34.33 0.01 0 -0.01 59 0 0 22.59 0 0 0c0.05,-64.29 0.08,-101.3 0.1,-122.6l0 0 -20.89 -0.01 0 0 -17.33 44.16 -17.44 -44.16 0 0 -20.65 0 0 0z" id="svg_1"/>
  <polygon class="fil0 str0" points="130.81,98.28 117.67,176 93.73,176.06 117.3,53.5 144.31,53.5 144.31,53.5 167.88,176.06 143.94,176 130.81,98.28 " id="svg_2"/>
  <path class="fil0 str0" d="M234.81 176.12c-9.52,0 -16.29,0 -21.12,0l0.12 0c-1.4,-3.8 -5.71,-15.57 -19.06,-52.02l0 0c0,20.15 0,37.32 0,51.96l0 0c-7.34,0 -14.87,0 -22.59,0l0 0c0,-29.17 0,-68.79 0,-122.6l0 0c5.95,0 11.79,0 17.51,0l0 0 22.65 55.63 0 0c0,-16.69 0,-35.15 0,-55.57l0 0 22.6 0 0 0c0,52.99 0,92.75 0,122.6l0 0c-0.04,0 -0.08,0 -0.11,0l0.11 0 -0.11 0z" id="svg_3"/>
  <path class="fil0 str0" d="M746.47 176.06c-9.51,0 -16.29,0 -21.11,0l0.11 0c-1.39,-3.79 -5.7,-15.56 -19.06,-52.01l0 0c0,20.14 0,37.31 0,51.95l0 0c-7.34,0 -14.86,0 -22.58,0l0 0c0,-29.17 0,-68.79 0,-122.6l0 0c5.95,0 11.78,0 17.5,0l0 0 22.65 55.63 0 0c0,-16.68 0,-35.14 0,-55.57l0 0 22.6 0 0 0c0,52.99 0,92.76 0,122.6l0 0c-0.03,0 -0.07,0 -0.11,0l0.11 0 -0.11 0z" id="svg_4"/>
  <polygon class="fil0 str0" points="340.15,98.24 327.02,175.96 303.08,176.03 326.65,53.46 353.66,53.46 353.66,53.46 377.23,176.03 353.29,175.96 340.15,98.24 " id="svg_5"/>
  <polygon class="fil0 str0" points="642.44,98.23 629.31,175.95 605.37,176.02 628.94,53.45 655.95,53.45 655.95,53.45 679.52,176.02 655.58,175.95 642.44,98.23 " id="svg_6"/>
  <path class="fil0 str0" d="M601.61 176.02l-23.84 0.03 0 0c0,-65.37 0,-102.05 0,-122.63l0 0 23.84 0 0 0c0,23.83 0,61.88 0,122.6l0 0z" id="svg_7"/>
  <path class="fil0 str0" d="M287.7 176.06l-46.4 0 0 0c0,-20.15 0,-56.61 0,-122.6l0 0 46.4 0 0 0c8.03,0 14.54,6.52 14.54,14.55 0,0.04 0,0.09 0,0.13l0 -0.26c0,44.01 0,73.72 0,93.77l0 -0.27c0,0.05 0,0.09 0,0.14 0,8.03 -6.51,14.54 -14.54,14.54l0 0zm-12.82 -22.17c0,0 0,0 0,0 1.07,0 1.93,-0.86 1.93,-1.93 0,0 0,0 0,0l0 0c0,-17.61 0,-41.58 0,-74.21l0 0.07c0,-0.01 0,-0.02 0,-0.04 0,-1.06 -0.86,-1.93 -1.93,-1.93 0,0 0,0 0,0l0 0 -10.35 0 0 0c0,34.55 0,59.71 0,78.04l0 0 10.36 0 -0.01 0z" id="svg_8"/>
  <path class="fil0 str0" d="M489.82 53.47l-38.69 -0.01 0 0c-6.09,0 -11.02,4.94 -11.02,11.03l-0.01 0c0,50.51 0,81.52 0,100.55l0.01 0c0,6.08 4.93,11.02 11.02,11.02l0 0 38.69 0 0 0c6.09,0 11.03,-4.93 11.03,-11.02l0 0c0,-20.21 0,-51.65 0,-100.55l0 0c0,-6.09 -4.94,-11.02 -11.03,-11.02l0 0zm-14.14 100.42c1.07,0 1.93,-0.86 1.93,-1.93l0 0c0,-17.52 0,-41.46 0,-74.18l0 0c0,-1.06 -0.86,-1.93 -1.93,-1.93 0,0 0,0 0,0l0 0 -11.08 0 0.07 0c-0.01,0 -0.02,0 -0.04,0 -1.06,0 -1.93,0.87 -1.93,1.93 0,0.01 0,0.01 0,0.01l0 0c0,32.85 0,56.76 0,74.17l0 0c0,1.07 0.87,1.93 1.93,1.93l0 0 11.05 0 0 0z" id="svg_9"/>
  <path class="fil0 str0" d="M405.07 153.89l28.7 0 0 0c0,8.56 0,15.89 0,22.17l0 0 -51.3 0 0 0c0,-20.76 0,-57.52 0,-122.6l0 0 22.6 0 0 0c0,48.03 0,79.64 0,100.43l0 0z" id="svg_10"/>
  <path class="fil0 str0" d="M546.27 103.04c1.06,0 1.93,-0.87 1.93,-1.93 0,-0.01 0,-0.01 0,-0.01l0 0.01c0,-7.22 0,-14.98 0,-23.33l0 0c0,-1.06 -0.87,-1.93 -1.93,-1.93 0,0 -0.01,0 -0.01,0l0.01 0 -14.73 0 0 0c0,50.76 0,81.55 0,100.21l0 0 -23.24 0 0 0c0,-20.26 0,-56.79 0,-122.59l0 0 51.24 -0.43 -0.01 0 0 0c6.09,0 11.03,4.94 11.03,11.03l0 -0.08c0,19.24 0,35.93 0,50.39l0 -0.08c0,6.09 -4.94,11.03 -11.03,11.03l0 0 0.08 0c-0.82,0 -1.69,0 -2.6,0l0 0c10.32,29.67 15.28,43.92 17.66,50.77l0.08 -0.04 -26.55 0 0 0c-6.38,-24.65 -9.69,-37.43 -11.4,-44.05l0 0c0,-8.69 0,-18.31 0,-28.97l0 0c4.67,0 7.61,0 9.47,0l0 0z" id="svg_11"/>
  <path class="fil0 str0" d="M385.34 25.75c0,3.05 0,5.45 0,7.33l5.97 0c0,-1.4 0,-5.65 0,-18.6l-5.97 0c0,2.87 0,5.42 0,7.68l-11.04 0c0,-2.26 0,-4.81 0,-7.68l-5.97 0c0,12.43 0,16.95 0,18.6l5.97 0c0,-1.88 0,-4.27 0,-7.33l11.04 0z" id="svg_12"/>
  <path class="fil0 str0" d="M363.59 14.48c0,1.28 0,2.47 0,3.59l-8.39 -0.09c0,7.33 0,12.06 0,15.1l-5.97 0c0,-3.05 0,-7.75 0,-15.01l-8.39 0c0,-1.12 0,-2.31 0,-3.59l22.75 0z" id="svg_13"/>
  <path class="fil0 str0" d="M405.99 25.75l0 3.75 0 0c5.3,0 9.87,0 13.82,0l0 0 0 3.58 0 0 -19.79 0 0 0c0,-2.22 0,-7.24 0,-18.6l0 0 19.79 0 0 0 0 3.59 0 -0.09c0,0 0,0 -13.82,0l0 0 0 4.18 0 0 10.8 0 0 0c0,1.35 0,2.54 0,3.59l0 0 -10.8 0 0 0z" id="svg_14"/>
  <path class="fil0 str0" d="M12.88 34.18c325.86,0 325.86,0 325.86,0l0 0c0,-1.22 0,-3.1 0,-5.97l-325.86 0c0,2.36 0,4.32 0,5.97l0 0z" id="svg_15"/>
  <path class="fil0 str0" d="M746.58 34.3c-316.22,0 -316.22,0 -316.22,0l0 0c0,-1.22 0,-3.1 0,-5.97l316.22 0c0,2.36 0,4.33 0,5.97l0 0z" id="svg_16"/>
 </g></g></svg>